<svg id="visual" viewBox="0 0 900 600" width="900" height="600" xmlns="http://www.w3.org/2000/svg" xmlns:xlink="http://www.w3.org/1999/xlink" version="1.1"><rect x="0" y="0" width="900" height="600" fill="#002233"></rect><path d="M0 537L82 537L82 480L164 480L164 467L245 467L245 423L327 423L327 450L409 450L409 488L491 488L491 486L573 486L573 505L655 505L655 496L736 496L736 431L818 431L818 476L900 476L900 493L900 601L900 601L818 601L818 601L736 601L736 601L655 601L655 601L573 601L573 601L491 601L491 601L409 601L409 601L327 601L327 601L245 601L245 601L164 601L164 601L82 601L82 601L0 601Z" fill="#c0b974" stroke-linecap="square" stroke-linejoin="miter"></path></svg>